<svg width="24" height="25" viewBox="0 0 24 25" fill="none" xmlns="http://www.w3.org/2000/svg">
<path d="M12 22.5C16.1174 22.5 19.4999 19.2371 19.4999 15.0491C19.4999 14.0209 19.4477 12.9188 18.8778 11.2058C18.3079 9.4929 18.1931 9.2718 17.5905 8.21395C17.333 10.3727 15.9555 11.2724 15.6055 11.5413C15.6055 11.2615 14.7722 8.16795 13.5088 6.31695C12.2685 4.5 10.5817 3.30796 9.59265 2.5C9.59265 4.03489 9.16095 6.31695 8.5427 7.4797C7.92445 8.64245 7.80835 8.6848 7.0361 9.5501C6.2639 10.4154 5.90945 10.6826 5.2637 11.7325C4.61798 12.7825 4.5 14.1809 4.5 15.2091C4.5 19.3971 7.88265 22.5 12 22.5Z" stroke="#333333" stroke-width="2" stroke-linejoin="round"/>
</svg>
