<svg width="24" height="25" viewBox="0 0 24 25" fill="none" xmlns="http://www.w3.org/2000/svg">
<path d="M16.1483 3.5H7.85177C7.64077 3.5 7.45247 3.63246 7.38117 3.83107L4.04613 13.1215C4.01594 13.2056 4.00884 13.2963 4.02556 13.3841L4.9226 18.0935C4.96752 18.3294 5.17372 18.5 5.41377 18.5H18.5863C18.8263 18.5 19.0325 18.3294 19.0774 18.0935L19.9745 13.3841C19.9912 13.2963 19.9841 13.2056 19.9539 13.1215L16.6189 3.83107C16.5476 3.63246 16.3593 3.5 16.1483 3.5Z" stroke="#333333" stroke-width="2" stroke-linecap="round" stroke-linejoin="round"/>
<path d="M12 18.5V22.5" stroke="#333333" stroke-width="2" stroke-linecap="round" stroke-linejoin="round"/>
<path d="M12 6.5V9.5" stroke="#333333" stroke-width="2" stroke-linecap="round" stroke-linejoin="round"/>
<path d="M8.25 12.2012L9.75 14.7992" stroke="#333333" stroke-width="2" stroke-linecap="round" stroke-linejoin="round"/>
<path d="M15.75 12.2012L14.25 14.7992" stroke="#333333" stroke-width="2" stroke-linecap="round" stroke-linejoin="round"/>
</svg>
